<svg width="89" height="32" viewBox="0 0 89 32" fill="none" xmlns="http://www.w3.org/2000/svg">
<path d="M38.7784 9.464C40.6254 9.464 42.1998 10.1412 43.5015 11.4957C44.8032 12.8326 45.454 14.4685 45.454 16.4035C45.454 18.3385 44.8032 19.9832 43.5015 21.3377C42.1998 22.6746 40.6254 23.343 38.7784 23.343C36.5972 23.343 34.9348 22.4723 33.7914 20.7308V28.2772H31.4959V9.80702H33.7914V12.0762C34.9348 10.3347 36.5972 9.464 38.7784 9.464ZM38.4881 21.1266C39.8074 21.1266 40.9157 20.678 41.8128 19.7809C42.7099 18.8662 43.1585 17.7404 43.1585 16.4035C43.1585 15.0666 42.7099 13.9496 41.8128 13.0525C40.9157 12.1378 39.8074 11.6804 38.4881 11.6804C37.1513 11.6804 36.0343 12.1378 35.1371 13.0525C34.24 13.9496 33.7914 15.0666 33.7914 16.4035C33.7914 17.7404 34.24 18.8662 35.1371 19.7809C36.0343 20.678 37.1513 21.1266 38.4881 21.1266ZM59.117 9.80702H61.4126V23H59.117V20.7308C57.9736 22.4723 56.3113 23.343 54.1301 23.343C52.2831 23.343 50.7087 22.6746 49.407 21.3377C48.1053 19.9832 47.4544 18.3385 47.4544 16.4035C47.4544 14.4685 48.1053 12.8326 49.407 11.4957C50.7087 10.1412 52.2831 9.464 54.1301 9.464C56.3113 9.464 57.9736 10.3347 59.117 12.0762V9.80702ZM54.4203 21.1266C55.7572 21.1266 56.8742 20.678 57.7713 19.7809C58.6685 18.8662 59.117 17.7404 59.117 16.4035C59.117 15.0666 58.6685 13.9496 57.7713 13.0525C56.8742 12.1378 55.7572 11.6804 54.4203 11.6804C53.101 11.6804 51.9928 12.1378 51.0957 13.0525C50.1986 13.9496 49.75 15.0666 49.75 16.4035C49.75 17.7404 50.1986 18.8662 51.0957 19.7809C51.9928 20.678 53.101 21.1266 54.4203 21.1266ZM72.0676 12.0234H68.5583V19.174C68.5583 19.8249 68.6814 20.291 68.9277 20.5725C69.1915 20.8364 69.5873 20.9771 70.115 20.9947C70.6427 20.9947 71.2936 20.9771 72.0676 20.9419V23C70.0623 23.2639 68.5934 23.1055 67.6611 22.5251C66.7288 21.927 66.2627 20.81 66.2627 19.174V12.0234H63.6505V9.80702H66.2627V6.79902L68.5583 6.11298V9.80702H72.0676V12.0234ZM81.3554 9.464C82.9034 9.464 84.1436 9.95654 85.0759 10.9416C86.0082 11.9091 86.4743 13.2284 86.4743 14.8995V23H84.1787V15.0314C84.1787 13.9584 83.8885 13.1316 83.308 12.5512C82.7275 11.9531 81.9271 11.654 80.9069 11.654C79.7635 11.654 78.84 12.0146 78.1364 12.7359C77.4327 13.4395 77.0809 14.5301 77.0809 16.0077V23H74.7853V4.52982H77.0809V11.7068C78.0132 10.2116 79.4381 9.464 81.3554 9.464Z" fill="#0A0D12"/>
<ellipse cx="22.1755" cy="16.8421" rx="6.73684" ry="6.45614" fill="#0A0D12"/>
<ellipse cx="6.73684" cy="16.8421" rx="6.73684" ry="6.45614" fill="#0A0D12"/>
</svg>
