<svg width="84" height="32" viewBox="0 0 84 32" fill="none" xmlns="http://www.w3.org/2000/svg">
<path d="M76.3028 9.46399C77.8508 9.46399 79.0909 9.95653 80.0232 10.9416C80.9555 11.9091 81.4217 13.2284 81.4217 14.8995V23H79.1261V15.0314C79.1261 13.9584 78.8359 13.1316 78.2554 12.5511C77.6749 11.9531 76.8745 11.654 75.8542 11.654C74.7108 11.654 73.7873 12.0146 73.0837 12.7359C72.3801 13.4395 72.0283 14.5301 72.0283 16.0077V23H69.7327V4.52982H72.0283V11.7068C72.9606 10.2116 74.3854 9.46399 76.3028 9.46399Z" fill="#0A0D12"/>
<path d="M67.0149 12.0234H63.5056V19.174C63.5056 19.8249 63.6287 20.291 63.875 20.5725C64.1389 20.8363 64.5347 20.9771 65.0624 20.9947C65.5901 20.9947 66.241 20.9771 67.0149 20.9419V23C65.0096 23.2639 63.5408 23.1055 62.6085 22.525C61.6762 21.927 61.21 20.81 61.21 19.174V12.0234H58.5978V9.80701H61.21V6.79901L63.5056 6.11298V9.80701H67.0149V12.0234Z" fill="#0A0D12"/>
<path d="M54.0644 9.80701H56.36V23H54.0644V20.7308C52.921 22.4723 51.2587 23.343 49.0774 23.343C47.2304 23.343 45.656 22.6746 44.3543 21.3377C43.0526 19.9832 42.4018 18.3385 42.4018 16.4035C42.4018 14.4685 43.0526 12.8326 44.3543 11.4957C45.656 10.1412 47.2304 9.46399 49.0774 9.46399C51.2587 9.46399 52.921 10.3347 54.0644 12.0762V9.80701ZM49.3677 21.1266C50.7046 21.1266 51.8216 20.678 52.7187 19.7809C53.6158 18.8662 54.0644 17.7404 54.0644 16.4035C54.0644 15.0666 53.6158 13.9496 52.7187 13.0525C51.8216 12.1378 50.7046 11.6804 49.3677 11.6804C48.0484 11.6804 46.9402 12.1378 46.043 13.0525C45.1459 13.9496 44.6974 15.0666 44.6974 16.4035C44.6974 17.7404 45.1459 18.8662 46.043 19.7809C46.9402 20.678 48.0484 21.1266 49.3677 21.1266Z" fill="#0A0D12"/>
<path d="M33.7257 9.46399C35.5728 9.46399 37.1471 10.1412 38.4488 11.4957C39.7505 12.8326 40.4014 14.4685 40.4014 16.4035C40.4014 18.3385 39.7505 19.9832 38.4488 21.3377C37.1471 22.6746 35.5728 23.343 33.7257 23.343C31.5445 23.343 29.8822 22.4723 28.7388 20.7308V28.2772H26.4432V9.80701H28.7388V12.0762C29.8822 10.3347 31.5445 9.46399 33.7257 9.46399ZM33.4355 21.1266C34.7548 21.1266 35.863 20.678 36.7601 19.7809C37.6573 18.8662 38.1058 17.7404 38.1058 16.4035C38.1058 15.0666 37.6573 13.9496 36.7601 13.0525C35.863 12.1378 34.7548 11.6804 33.4355 11.6804C32.0986 11.6804 30.9816 12.1378 30.0845 13.0525C29.1874 13.9496 28.7388 15.0666 28.7388 16.4035C28.7388 17.7404 29.1874 18.8662 30.0845 19.7809C30.9816 20.678 32.0986 21.1266 33.4355 21.1266Z" fill="#0A0D12"/>
<path d="M21.3333 16.7018C21.3333 19.4147 19.134 21.6141 16.421 21.6141C13.7081 21.6141 11.5088 19.4147 11.5088 16.7018C11.5088 13.9888 13.7081 11.7895 16.421 11.7895C19.134 11.7895 21.3333 13.9888 21.3333 16.7018Z" fill="#0A0D12"/>
<path d="M9.82456 16.7018C9.82456 19.4147 7.62526 21.6141 4.91228 21.6141C2.1993 21.6141 0 19.4147 0 16.7018C0 13.9888 2.1993 11.7895 4.91228 11.7895C7.62526 11.7895 9.82456 13.9888 9.82456 16.7018Z" fill="#0A0D12"/>
</svg>
