<svg preserveAspectRatio="none" width="100%" height="100%" overflow="visible" style="display: block;" viewBox="0 0 196 14" fill="none" xmlns="http://www.w3.org/2000/svg">
<path id="Vector" d="M195.115 4.27776C195.019 3.98976 194.827 3.79776 194.539 3.70176C193.195 3.22176 191.755 3.22176 190.411 3.02976C189.643 2.93376 188.971 2.93376 188.203 2.74176C187.723 2.64576 187.147 2.54976 186.571 2.54976C186.091 2.54976 185.611 2.35776 185.131 2.35776C185.035 2.35776 184.843 2.26176 184.747 2.35776C184.075 2.54976 183.499 2.35776 182.923 2.26176C182.347 2.16576 181.867 2.16576 181.387 2.06976C180.811 2.35776 180.331 1.87776 179.851 1.97376C179.275 2.06976 178.603 1.78177 178.027 1.87777C177.355 1.97377 176.683 1.58977 176.011 1.87777C175.915 1.87777 175.627 1.78176 175.435 1.78176C175.051 1.78176 174.571 1.68576 174.187 1.58976C173.611 1.49376 172.939 1.30176 172.363 1.49376C171.691 1.68576 171.115 1.39776 170.539 1.30176L169.579 1.39777C169.483 1.39777 169.291 1.49377 169.195 1.39777C168.427 1.10977 167.755 1.30176 166.987 1.30176C166.699 1.20576 166.315 1.30177 166.027 1.20577C164.587 0.725768 163.147 1.01376 161.707 1.01376C160.939 1.01376 160.171 0.917766 159.403 0.917766C158.155 0.917766 156.907 0.725757 155.659 0.725757C154.603 0.725757 153.547 0.725759 152.395 0.53376C151.723 0.437759 151.051 0.437767 150.379 0.437767C150.187 0.437767 149.995 0.533767 149.803 0.437767C148.843 0.341766 147.883 0.437762 146.827 0.341762C145.003 0.149762 143.083 0.53376 141.259 0.0537601C141.067 0.0537601 140.875 0.149765 140.683 0.149765C139.915 0.149765 139.243 0.245758 138.475 0.245758C138.091 0.245758 137.611 -0.0422429 137.131 0.245758C136.651 -0.0422429 136.171 0.0537573 135.595 0.245758C135.307 0.341757 135.019 0.341757 134.731 0.245758C133.963 -0.0422429 133.291 -0.0422358 132.523 0.149765C132.139 0.245765 131.659 -0.0422429 131.179 0.245758C130.507 -0.0422429 129.643 0.245765 128.875 0.149765C128.107 0.0537644 127.339 -0.0422429 126.571 0.245758C125.899 -0.0422429 125.035 0.0537601 124.267 0.0537601C123.979 0.14976 123.691 0.149765 123.403 0.149765C123.211 0.149765 122.923 0.341757 122.731 0.245758C122.347 0.0537573 121.867 0.149765 121.387 0.149765C121.003 0.149765 120.523 0.0537601 120.043 0.0537601C119.275 0.0537601 118.603 0.14976 117.835 0.0537601C117.163 -0.0422401 116.491 0.245761 115.819 0.0537601C115.147 -0.13824 114.379 0.245758 113.707 0.245758C111.403 0.245758 109.195 0.245763 106.987 0.341762C106.411 0.0537623 105.835 0.341762 105.259 0.341762C104.683 0.341762 104.107 0.149762 103.531 0.341762C103.243 0.437762 102.859 0.437767 102.475 0.437767C101.227 0.437767 99.8827 0.533767 98.6347 0.437767C97.9627 0.725767 97.1947 0.629764 96.4267 0.629764C94.8907 0.629764 93.2587 0.533758 91.6267 0.725757C90.6667 0.821757 89.8027 0.917766 88.8427 0.917766H86.6347C85.8667 0.917766 85.0987 0.821759 84.3307 1.01376C83.5627 1.20576 82.8907 0.917759 82.2187 1.01376C81.3547 1.10976 80.4907 1.01377 79.7227 1.20577C78.9547 1.39777 78.0907 1.01376 77.3227 1.49376H77.0347C76.0747 1.10976 75.1147 1.30176 74.2507 1.30176C73.2907 1.30176 72.3307 1.30176 71.4667 1.58976C71.1787 1.68576 70.9867 1.68576 70.6987 1.58976C70.5067 1.49376 70.2187 1.49376 69.9307 1.58976C69.1627 1.58976 68.3947 1.39776 67.6267 1.78176C66.8587 1.58976 66.0907 1.68576 65.3227 1.78176C64.5547 1.87776 63.8827 1.87777 63.1147 1.87777C62.3467 1.87777 61.5787 1.87776 60.8107 2.06976C60.0427 1.87776 59.3707 2.35776 58.6987 1.97376C57.9307 2.26176 57.2587 1.97377 56.4907 2.16577C55.5307 2.35777 54.5707 2.45376 53.6107 2.35776C52.9387 2.26176 52.3627 2.45376 51.7867 2.54976C51.2107 2.64576 50.7307 2.64577 50.2507 2.64577C49.6747 2.64577 49.0987 2.45377 48.5227 2.64577C47.4667 3.02977 46.3147 2.64576 45.1627 3.02976C44.1067 2.74176 43.0507 3.22176 41.9947 3.22176C41.5147 3.22176 40.9387 3.12576 40.4587 3.31776C39.7867 3.60576 39.0187 3.50976 38.2507 3.50976C37.8667 3.41376 37.3867 3.41377 36.9067 3.60577C36.4267 3.79777 35.8507 3.98976 35.2747 3.79776C34.9867 3.70176 34.6987 3.79777 34.3147 3.89377C33.7387 3.89377 33.1627 3.98976 32.4907 3.98976C31.9147 3.98976 31.3387 4.46976 30.6667 4.18176C30.4747 4.08576 30.2827 4.27776 30.2827 4.46976C30.1867 4.75776 30.0907 5.04576 29.8027 4.56576C29.7067 4.37376 29.4187 4.37377 29.1307 4.37377C28.7467 4.37377 28.4587 4.56576 28.0747 4.46976C27.7867 4.37376 27.4027 4.75776 27.0187 4.56576C26.8267 4.46976 26.8267 4.75777 26.7307 4.85377C26.7307 5.14177 26.6347 5.23776 26.3467 5.04576C25.5787 4.75776 24.9067 4.66177 24.2347 5.33377C24.0427 5.52577 24.0427 5.42976 23.9467 5.23776C23.9467 5.04576 24.0427 4.85377 23.6587 4.85377C22.8907 5.04577 22.1227 5.33377 21.3547 5.33377C20.4907 5.33377 19.7227 5.52576 18.9547 5.62176C17.3227 5.81376 15.6907 5.81376 13.9627 6.19776C13.0027 6.38976 11.9467 6.48577 10.9867 6.77377C10.6987 6.86977 10.4107 6.86976 10.2187 6.86976C9.83467 6.86976 9.35467 7.15777 8.97067 7.06177C8.49067 6.96577 8.10667 7.15776 7.62667 7.34976C7.33867 7.44576 7.05067 7.44577 6.76267 7.54177C5.61067 7.54177 4.55467 7.82977 3.59467 8.30977C3.40267 8.40577 3.11467 8.40577 2.82667 8.50177C2.53867 8.69377 2.34667 8.69376 1.96267 8.59776C1.29067 8.40576 0.618666 8.40576 0.0426668 8.88576C0.0426668 8.98176 -0.0533334 9.07776 0.0426668 9.17376C0.0426668 9.26976 0.138666 9.26976 0.234666 9.36576C0.426667 9.36576 0.522666 9.36577 0.714667 9.26977C0.906666 9.17377 1.09867 9.07776 1.29067 9.17376C2.25067 9.65376 3.21067 9.46177 4.17067 9.26977C4.65067 9.17377 5.03467 9.36577 5.41867 8.98177C5.70667 8.69377 6.09067 8.69376 6.37867 8.69376C6.85867 8.69376 7.24267 8.59776 7.62667 8.59776C8.39467 8.59776 8.97067 8.30976 9.54667 7.73376C9.73867 7.44576 10.1227 7.44576 10.4107 7.63776C10.9867 8.21376 11.5627 8.11776 12.3307 8.11776C12.9067 8.11776 13.4827 7.92576 14.1547 7.92576C14.3467 7.92576 14.5387 8.02176 14.7307 7.82976C15.2107 7.34976 16.0747 7.54176 16.6507 7.25376C16.8427 7.15776 17.0347 7.25376 17.2267 7.25376C17.5147 7.34976 17.8027 7.34976 17.9947 7.34976C19.4347 7.34976 20.8747 7.06176 22.3147 6.86976L22.6027 6.67776C22.7947 6.29376 22.9867 6.48576 23.3707 6.48576C23.7547 6.48576 24.3307 6.58176 24.7147 6.48576C25.4827 6.29376 26.2507 6.00576 27.1147 6.19776C27.7867 5.81376 28.4587 6.00576 29.1307 5.90976H31.8187C32.1067 5.90976 32.4907 6.00576 32.7787 5.62176C32.7787 5.42976 32.8747 5.42976 32.9707 5.52576C33.2587 6.10176 33.8347 5.90977 34.2187 5.81377C34.9867 5.62177 35.6587 5.52576 36.4267 5.14176C36.6187 5.04576 36.7147 5.23777 36.8107 5.33377C37.0027 5.52577 37.0987 5.52576 37.1947 5.52576C37.9627 5.23776 38.7307 5.33376 39.4987 5.23776C40.3627 5.14176 41.1307 5.23776 41.9947 5.23776C42.3787 5.23776 42.7627 5.33376 43.0507 5.23776C44.0107 4.94976 44.8747 4.94976 45.8347 4.94976C46.6027 4.94976 47.1787 5.04576 47.9467 4.66176C48.1387 4.56576 48.4267 4.66176 48.6187 4.66176C50.3467 4.66176 52.0747 4.75777 53.7067 4.37377H54.1867C54.8587 4.37377 55.4347 4.37376 56.1067 4.27776C56.7787 4.18176 57.3547 4.37377 58.0267 4.37377C58.4107 4.27777 58.7947 4.37376 59.0827 4.18176C59.5627 3.89376 59.9467 4.37376 60.3307 4.18176C61.0027 3.79776 61.5787 3.98976 62.2507 3.98976C63.1147 3.98976 63.9787 4.08576 64.7467 3.98976C65.8987 3.79776 67.0507 3.70176 68.1067 3.70176C68.3947 3.70176 68.6827 3.79776 68.8747 3.70176C69.3547 3.50976 69.7387 3.50977 70.1227 3.60577C70.5067 3.70177 70.8907 3.41377 71.3707 3.60577C71.7547 3.79777 72.2347 3.50977 72.7147 3.60577C73.0987 3.70177 73.4827 3.79777 73.9627 3.60577C74.3467 3.41377 74.8267 3.60576 75.3067 3.50976C75.7867 3.41376 76.2667 3.31776 76.8427 3.31776C77.4187 3.31776 77.8987 3.41377 78.4747 3.41377C79.0507 3.41377 79.5307 3.22176 80.0107 3.31776C80.5867 3.41376 81.1627 3.41377 81.7387 3.41377C82.6027 3.41377 83.5627 3.60576 84.3307 3.22176C84.5227 3.12576 84.7147 3.22176 84.9067 3.22176C85.7707 3.41376 86.5387 3.50976 87.4027 3.22176C88.0747 3.02976 88.7467 2.74177 89.4187 3.12577C91.0507 3.12577 92.7787 3.02976 94.5067 3.02976C95.0827 2.83776 95.7547 2.93376 96.3307 2.93376C96.7147 2.93376 97.0027 3.12576 97.3867 2.83776C98.3467 3.02976 99.2107 2.74176 100.171 2.74176C101.419 2.74176 102.763 2.93377 104.107 2.64577H104.395C105.067 2.93377 105.643 2.74177 106.315 2.64577C106.507 2.54977 106.603 2.64577 106.795 2.64577C107.851 2.93377 108.907 3.02977 110.059 2.64577C110.347 2.54977 110.635 2.54977 110.923 2.64577C111.403 2.83777 111.883 2.83777 112.363 2.64577C112.747 2.45377 113.131 2.45377 113.515 2.64577C113.707 2.74177 113.995 2.74176 114.187 2.74176H117.355C117.739 2.83776 118.219 2.83776 118.603 2.74176C119.563 2.54976 120.427 2.74176 121.387 2.74176C121.771 2.74176 122.251 2.83776 122.731 2.54976C123.211 2.26176 123.595 2.16577 124.075 2.64577C124.267 2.74177 124.555 2.74176 124.843 2.74176C125.707 2.74176 126.571 2.83777 127.435 2.64577C128.203 2.93377 129.067 2.74176 129.835 2.74176C130.603 2.74176 131.371 2.83776 132.139 2.74176C132.907 2.64576 133.675 2.74176 134.443 2.74176C136.075 2.74176 137.707 2.64576 139.243 2.93376C139.339 3.02976 139.531 3.02976 139.627 2.93376C140.203 2.74176 140.779 2.93376 141.451 3.02976C142.603 3.22176 143.851 3.12576 145.099 2.74176C145.387 2.64576 145.675 2.64576 145.963 2.74176C146.827 3.02976 147.691 3.12577 148.555 3.12577C149.515 3.12577 150.379 3.22176 151.243 3.22176C151.819 3.22176 152.395 3.31776 152.875 3.31776C153.547 3.31776 154.123 3.41376 154.795 3.22176C155.371 3.02976 155.947 3.41377 156.619 3.41377H157.195C158.155 3.22177 158.923 3.50976 159.787 3.50976C159.883 3.50976 159.883 3.60577 159.979 3.60577V3.70176C160.075 3.89376 159.979 3.98976 159.883 3.98976C159.691 3.98976 159.499 4.08576 159.403 3.98976C159.019 3.60576 158.347 3.79776 157.771 3.98976C157.483 4.08576 157.195 4.08577 156.907 4.08577H152.971C152.587 4.08577 152.203 4.18176 151.915 4.27776C151.435 4.46976 151.147 3.89377 150.667 4.08577C150.379 4.18177 150.091 4.08576 149.803 4.18176C149.515 4.27776 149.323 4.27776 149.035 4.27776C148.651 4.27776 148.363 4.37376 147.979 4.18176C147.595 3.98976 147.211 4.37376 146.827 4.18176H143.563C143.179 4.18176 142.891 4.37376 142.603 4.27776C141.835 3.98976 141.067 4.56576 140.395 4.18176C139.531 4.46976 138.763 4.37377 137.899 4.37377H135.595C134.827 4.37377 134.059 4.46976 133.291 4.46976C132.427 4.46976 131.659 4.75776 130.795 4.46976C130.699 4.37376 130.507 4.46976 130.315 4.56576C129.931 4.56576 129.451 4.66176 128.971 4.66176C127.243 4.66176 125.419 4.66177 123.691 4.85377C122.635 4.94977 121.483 4.94976 120.427 4.94976C119.563 4.94976 118.603 5.14176 117.739 5.62176C117.643 5.71776 117.451 5.71777 117.355 5.81377C117.163 5.23777 116.683 5.62176 116.395 5.52576C115.723 5.33376 115.051 5.33376 114.283 5.52576C114.091 5.52576 113.899 5.62176 113.707 5.52576C113.323 5.33376 112.939 5.52576 112.651 5.52576C111.883 5.52576 111.115 5.71776 110.347 5.62176C109.771 5.52576 109.195 5.71776 108.715 6.00576C108.427 6.10176 108.235 6.10176 107.947 6.00576C107.659 6.00576 107.371 6.10177 106.987 6.10177C106.795 6.10177 106.507 6.19776 106.219 6.19776C105.643 6.00576 105.067 6.29376 104.491 6.38976C104.107 6.48576 103.819 6.58176 103.531 6.48576C103.243 6.38976 103.051 6.58176 103.147 6.86976C103.243 7.92576 104.011 8.40576 104.875 7.82976C105.163 7.63776 105.355 7.63776 105.547 7.73376C106.123 7.82976 106.507 8.11776 107.083 7.82976C107.275 7.73376 107.563 7.73376 107.851 7.73376C108.523 7.73376 109.099 7.73376 109.675 7.63776C110.347 7.54176 110.923 7.44576 111.595 7.44576H113.419C113.707 7.44576 114.091 7.44576 114.475 7.34976C115.051 7.15776 115.723 6.96576 116.395 7.15776C116.683 7.25376 116.971 7.15777 117.163 7.06177C117.547 6.86977 117.931 7.15777 118.219 7.06177C118.699 6.77377 118.987 7.06176 119.467 7.15776C120.043 7.25376 120.715 7.25377 121.291 7.06177C121.387 6.96577 121.579 6.86976 121.675 6.96576C122.155 7.15776 122.443 6.86977 122.731 6.77377C123.115 6.67777 123.595 6.86976 123.787 6.38976C123.883 6.29376 123.979 6.29377 124.075 6.29377C124.555 6.29377 124.939 6.67776 125.419 6.38976H125.515C125.803 6.96576 126.379 6.77376 126.763 6.86976C127.243 6.86976 127.627 6.77376 128.011 6.86976C128.491 6.86976 128.971 6.86976 129.163 6.48576C129.259 6.29376 129.451 6.38976 129.547 6.48576C129.835 6.77376 130.123 6.67776 130.411 6.67776C130.699 6.67776 130.987 6.58177 131.371 6.58177C131.851 6.58177 132.427 6.67776 132.907 6.48576C133.483 6.29376 133.963 6.58177 134.539 6.58177H135.019C135.979 6.58177 136.843 6.58176 137.803 6.38976C138.763 6.19776 139.723 6.58177 140.683 6.29377C140.971 6.19777 141.355 6.19776 141.643 6.38976C142.027 6.58176 142.411 6.48576 142.795 6.38976C144.331 6.00576 145.867 6.29376 147.307 6.19776C148.363 6.10176 149.515 6.19776 150.571 6.19776C151.147 6.29376 151.531 5.90976 151.723 5.42976C152.395 6.19776 152.395 6.29376 153.163 6.19776C153.835 6.10176 154.603 6.19776 155.275 6.00576H155.947C156.427 6.29376 157.003 6.19776 157.579 6.19776C158.635 6.19776 159.691 6.10177 160.747 6.29377C161.323 6.38977 161.899 6.10177 162.571 6.10177C162.667 6.10177 162.763 5.90977 162.859 5.81377C163.147 5.23777 163.147 5.62177 163.147 5.81377C163.243 6.10177 163.435 6.19776 163.627 6.19776C164.011 6.19776 164.491 6.00576 164.779 6.19776C165.163 6.48576 165.739 6.00577 166.219 6.10177C166.699 6.19777 167.179 6.29376 167.659 6.48576H168.139C169.099 6.48576 169.963 6.48576 170.923 6.48576H172.267C172.555 6.48576 172.747 6.38976 173.035 6.48576C173.899 6.58176 174.763 6.48576 175.627 6.38976C176.203 6.29376 176.779 6.29376 177.355 6.48576C177.643 6.58176 178.027 6.38976 178.411 6.38976C178.507 6.38976 178.603 6.29376 178.795 6.38976C179.467 6.67776 180.139 6.58176 180.811 6.38976L181.963 6.10177C182.443 6.00577 182.635 6.67776 183.115 6.48576C183.403 6.38976 183.595 6.48577 183.883 6.58177H185.419C185.899 6.58177 186.283 6.29376 186.763 6.48576C187.243 6.67776 187.819 6.67776 188.299 6.67776H188.779C188.971 6.67776 189.163 6.67777 189.259 6.58177C189.643 6.19777 190.027 6.48576 190.507 6.48576H194.443C194.731 6.48576 195.019 6.29376 195.115 5.90976C195.211 5.42976 195.307 4.85376 195.115 4.27776ZM102.187 6.38976C101.707 6.38976 101.323 6.29376 100.939 6.67776C100.843 6.77376 100.651 6.77376 100.651 6.67776C100.267 6.48576 99.7867 6.58177 99.4027 6.58177C97.3867 6.58177 95.4667 7.06176 93.4507 6.86976C93.4507 6.86976 93.3547 6.86976 93.3547 6.96576C92.8747 7.25376 92.2987 7.15776 91.8187 7.15776C91.5307 7.15776 91.2427 7.15776 91.0507 7.25376C90.4747 7.54176 89.8027 7.54176 89.2267 7.44576C88.6507 7.34976 88.2667 7.73376 87.6907 7.92576C87.5947 7.92576 87.4987 8.11776 87.4987 8.21376C87.4027 8.30976 87.4027 8.50177 87.4027 8.50177C87.3067 8.59777 87.2107 8.69376 87.1147 8.69376C86.9227 8.59776 86.9227 8.40577 86.9227 8.30977C86.9227 8.21377 87.0187 8.11777 87.1147 8.02177C87.2107 7.73377 87.1147 7.63776 86.8267 7.63776C86.5387 7.73376 86.1547 7.82976 85.8667 7.82976C85.0987 7.63776 84.2347 7.82976 83.4667 7.82976C82.9867 7.82976 82.6027 7.82976 82.2187 7.92576C81.8347 8.02176 81.4507 8.30976 81.0667 8.21376H79.8187C79.2427 8.30976 78.6667 8.21376 78.0907 8.40576C77.7067 8.50176 77.3227 8.69376 76.9387 8.59776C76.3627 8.50176 75.9787 8.59777 75.4987 8.78977C75.0187 8.98177 74.6347 9.07776 74.0587 8.88576C73.7707 8.78976 73.2907 8.78977 73.1947 8.98177C72.8107 9.36577 72.4267 9.17376 72.0427 9.17376H70.7947C70.3147 9.17376 69.9307 9.36576 69.4507 9.36576C68.8747 9.36576 68.2987 9.36576 67.9147 9.55776C67.4347 9.74976 66.9547 9.46176 66.4747 9.65376C65.6107 9.94176 64.6507 9.94176 63.7867 10.0378C62.6347 10.1338 61.6747 10.2298 60.9067 10.9978C60.9067 11.0938 60.7147 10.9978 60.6187 10.9978C60.6187 10.9018 60.6187 10.8058 60.7147 10.7098C60.7147 10.4218 60.6187 10.3258 60.4267 10.4218L59.5627 10.7098C59.4667 10.7098 59.3707 10.9018 59.4667 10.9978C59.4667 11.0938 59.5627 11.0938 59.6587 11.0938C59.8507 10.9978 60.0427 10.9018 60.1387 11.0938C60.1387 11.1898 60.0427 11.3818 59.9467 11.4778C59.8507 11.5738 59.6587 11.6698 59.8507 11.8618C59.9467 11.9578 60.0427 12.0538 60.2347 12.0538C60.6187 12.0538 61.0987 11.8618 61.5787 11.8618C62.0587 11.8618 62.4427 11.7658 62.6347 11.3818C62.7307 11.1898 63.1147 11.1898 63.2107 11.3818C63.4987 11.8618 63.8827 11.8618 64.2667 11.5738C64.7467 11.1898 65.2267 10.9018 65.8027 11.1898C65.9947 11.2858 66.2827 11.1898 66.5707 11.0938C66.8587 10.9978 66.9547 10.8058 66.9547 10.4218C66.9547 10.3258 67.1467 10.1338 67.2427 10.1338C67.4347 10.1338 67.5307 10.3258 67.6267 10.4218C67.6267 10.5178 67.6267 10.6138 67.5307 10.7098C67.5307 11.0938 67.6267 11.1898 67.9147 11.1898C68.4907 11.1898 68.5867 11.1898 68.5867 10.7098C68.5867 10.4218 68.6827 10.2298 68.8747 10.3258C69.1627 10.4218 69.3547 10.5178 69.5467 10.7098C69.7387 10.8058 69.9307 10.9018 70.1227 10.9018C70.7947 10.9018 71.3707 10.9018 71.9467 10.8058C73.1947 10.6138 74.3467 10.2298 75.4987 10.2298C75.7867 10.2298 76.0747 9.94176 76.3627 10.1338C76.9387 10.5178 77.4187 10.0378 77.8987 10.0378C78.0907 10.0378 78.3787 9.94176 78.5707 10.0378C79.0507 10.2298 79.4347 10.0378 79.8187 10.0378C80.4907 10.0378 81.0667 9.46176 81.7387 9.84576C82.7947 9.65376 83.9467 9.65376 85.0027 9.65376C85.4827 9.65376 85.9627 9.46176 86.2507 9.07776C86.5387 8.69376 86.4427 8.98176 86.6347 9.17376C86.7307 9.26976 86.9227 9.36576 87.0187 9.36576L87.9787 9.07776H89.3227C89.8027 9.07776 90.3787 8.88576 90.8587 9.07776C91.0507 9.07776 91.2427 9.07777 91.4347 8.98177C92.3947 8.88577 93.2587 8.50176 94.2187 8.59776L94.4107 8.40576C94.5067 8.30976 94.5067 8.21376 94.6027 8.40576C94.7947 8.50176 94.8907 8.69376 95.1787 8.69376C95.6587 8.69376 96.1387 8.50176 96.6187 8.59776C96.7147 8.69376 96.8107 8.50176 96.7147 8.40576C96.7147 8.30976 96.7147 8.11776 96.8107 8.21376C97.5787 8.50176 98.3467 8.30977 99.1147 8.30977H101.611C101.995 8.30977 101.995 8.11776 101.995 7.73376C101.899 7.44576 101.899 7.34976 102.283 7.34976C102.475 7.34976 102.475 7.25377 102.571 7.06177C102.667 6.86977 103.051 6.67776 102.763 6.38976C102.571 6.19776 102.379 6.38976 102.187 6.38976ZM58.7947 10.9978H57.8347C57.3547 10.9018 56.8747 11.2858 56.3947 11.1898C55.5307 10.9978 54.9547 11.3818 54.2827 11.5738C53.9947 11.6698 53.9947 11.9578 53.9947 12.2458V12.4378C54.6667 12.5338 55.4347 12.5338 56.1067 12.5338C56.3947 12.5338 56.6827 12.4378 56.7787 12.2458C56.9707 11.9578 57.1627 11.6698 57.3547 11.4778C57.6427 11.1898 58.0267 11.6698 58.4107 11.4778C58.5067 11.3818 58.6987 11.4778 58.7947 11.4778C58.8907 11.4778 58.9867 11.2858 58.9867 11.1898C58.8907 11.1898 58.8907 10.9978 58.7947 10.9978ZM53.5147 11.6698C53.3227 11.5738 53.1307 11.5738 52.9387 11.5738C52.4587 11.5738 51.9787 11.5738 51.5947 11.9578C51.4027 12.1498 51.0187 12.2458 50.7307 12.0538C50.3467 11.8618 49.9627 11.9578 49.5787 12.2458C49.1947 12.5338 49.1947 12.6298 48.6187 13.2058C48.5227 13.3018 48.5227 13.3018 48.6187 13.3978C48.9067 13.3978 49.1947 13.3978 49.3867 13.2058C49.7707 12.8218 50.2507 12.7258 50.8267 12.8218C51.7867 13.0138 52.8427 12.7258 53.8027 12.7258C53.8987 12.7258 53.8987 12.5338 53.9947 12.5338L53.7067 12.2458C53.6107 12.0538 53.7067 11.7658 53.5147 11.6698Z" fill="var(--fill-0, #181D27)"/>
</svg>
